<?xml version="1.0" encoding="UTF-8"?>
<svg id="Calque_2" data-name="Calque 2" xmlns="http://www.w3.org/2000/svg" viewBox="0 0 140.39 149.75">
  <defs>
    <style>
      .cls-1 {
        fill: #00ff0a;
        stroke-width: 0px;
      }
    </style>
  </defs>
  <g id="Calque_1-2" data-name="Calque 1">
    <rect class="cls-1" x="9.36" y="46.8" width="9.36" height="9.36"/>
    <rect class="cls-1" x="18.72" y="56.16" width="9.36" height="9.36"/>
    <polygon class="cls-1" points="9.36 28.08 0 28.08 0 37.44 0 46.8 9.36 46.8 9.36 37.44 9.36 28.08"/>
    <path class="cls-1" d="m131.03,18.72v-9.36h-9.36V0h-9.36v9.36h-9.36v18.72h9.36v9.36h-9.36v9.36h9.36v56.16h-9.36v-9.36h-9.36v-28.08h9.36v-18.72h-9.36v-9.36h9.36v-9.36h-9.36V9.36h-9.36V0h-9.36v9.36h-9.36v9.36h-9.36v9.36h18.72v18.72h-9.36v18.72h9.36v28.08h-9.36v9.36h-9.36v-9.36h-18.72v-9.36h9.36v-9.36h18.72v-9.36h-9.36V28.08h-9.36V9.36h-9.36V0h-9.36v9.36h-9.36v9.36h-9.36v9.36h18.72v9.36h9.36v28.08h-9.36v18.72H9.36v9.36H0v18.72h0v18.72h9.36v-4.68h0c0-1.56,0-3.12,0-4.68v-9.36h0c0-2.88,0-5.76,0-8.64v-.72h18.72v9.36h18.72v9.36h9.36v9.36h9.36v-9.36h9.36v-9.36h9.36v9.36h9.36v9.36h9.36v-9.36h9.36v-9.36h9.36v-18.72h9.36V28.08h9.36v-9.36h-9.36Z"/>
    <path class="cls-1" d="m37.44,126.35h0c0-1.56,0-3.12,0-4.68h-9.36v9.36h9.36v-4.68Z"/>
    <path class="cls-1" d="m56.16,140.39h-8s-1.36,0-1.36,0v-4.68h0c0-1.56,0-3.12,0-4.68h-9.36v9.36h-1.38s-5.2,0-5.2,0h-12.13v-4.68h0c0-1.56,0-3.12,0-4.68h-9.36v9.36h9.36v9.36h37.44v-4.68h0c0-1.56,0-3.12,0-4.68Z"/>
  </g>
</svg>