<?xml version="1.0" encoding="UTF-8"?>
<svg id="Calque_2" data-name="Calque 2" xmlns="http://www.w3.org/2000/svg" viewBox="0 0 500.28 499.21">
  <defs>
    <style>
      .cls-1 {
        fill: #fff;
        stroke-width: 0px;
      }
    </style>
  </defs>
  <g id="Calque_1-2" data-name="Calque 1">
    <g>
      <path class="cls-1" d="m500.28,33.3h-35.81V0H35.81v33.3H0v433.39h35.81v32.51h428.65v-32.51h35.81V33.3Zm-71.62,68.04v297.07h-29.39v29.33H101.01v-29.33h-29.39V101.34h30.03v-29.87h297.61v29.87h29.39Z"/>
      <rect class="cls-1" x="363.02" y="101.17" width="36.15" height="36.07"/>
      <path class="cls-1" d="m333.54,167.91c0-11.56,0-23.12,0-34.67h-166.45c-.06,11.56-.12,23.12-.17,34.67h-34.57v166.1h34.66v5.87h.09v28.8s166.45,0,166.45,0v-34.67h34.75v-166.1h-34.75Zm0,130.02h-36.15v36.07h-94.24s0-5.87,0-5.87h-.09v-31.16h-35.98c0-30.99,0-61.99,0-92.98h35.98v-36.07h94.32v36.07h30.26s0,0,0,0h5.89v93.95Z"/>
    </g>
  </g>
</svg>