<?xml version="1.0" encoding="UTF-8"?>
<svg id="Calque_2" data-name="Calque 2" xmlns="http://www.w3.org/2000/svg" viewBox="0 0 335.89 453.16">
  <defs>
    <style>
      .cls-1 {
        fill: #fff;
        stroke-width: 0px;
      }
    </style>
  </defs>
  <g id="Calque_3" data-name="Calque 3">
    <polygon class="cls-1" points="304.61 121.18 304.61 89.9 273.33 89.9 273.33 58.62 246.16 58.62 246.16 0 183.59 0 183.59 359.31 152.31 359.31 152.31 390.6 93.85 390.6 93.85 359.31 62.56 359.31 62.56 304.84 93.85 304.84 93.85 273.56 152.31 273.56 152.31 211 62.58 211 62.58 242.28 31.28 242.28 31.28 269.29 0 269.29 0 394.79 31.28 394.79 31.28 421.88 62.56 421.88 62.56 453.16 183.8 453.16 183.8 421.88 214.88 421.88 214.88 394.6 246.16 394.6 246.16 152.47 273.33 152.47 273.33 183.75 335.89 183.75 335.89 121.18 304.61 121.18"/>
  </g>
</svg>