<?xml version="1.0" encoding="UTF-8"?>
<svg id="Calque_2" data-name="Calque 2" xmlns="http://www.w3.org/2000/svg" viewBox="0 0 550.35 480.19">
  <defs>
    <style>
      .cls-1 {
        fill: #00ff0a;
        stroke-width: 0px;
      }
    </style>
  </defs>
  <g id="Calque_1-2" data-name="Calque 1">
    <g>
      <g>
        <rect class="cls-1" x="183.32" y="313.4" width="16.72" height="50.06" transform="translate(383.36 676.86) rotate(-180)"/>
        <rect class="cls-1" x="166.54" y="363.47" width="16.72" height="16.72" transform="translate(349.8 743.66) rotate(-180)"/>
        <rect class="cls-1" x="266.82" y="396.6" width="33.21" height="16.72" transform="translate(566.84 809.92) rotate(-180)"/>
        <rect class="cls-1" x="300.38" y="330.07" width="33.21" height="16.72" transform="translate(633.97 676.86) rotate(-180)"/>
        <polygon class="cls-1" points="433.28 396.24 433.28 379.89 416.64 379.89 416.64 363.35 400 363.35 400 346.82 383.41 346.82 383.41 330.07 366.81 330.07 366.81 346.82 333.62 346.82 333.62 363.53 350.26 363.53 350.26 379.89 333.48 379.89 333.48 396.24 316.84 396.24 316.84 412.95 450.35 412.95 450.35 396.24 433.28 396.24"/>
        <polygon class="cls-1" points="166.62 380.06 150.08 380.06 150.08 363.52 133.36 363.52 133.36 380.06 116.82 380.06 116.82 396.78 133.36 396.78 133.36 413.32 150.08 413.32 150.08 396.78 166.62 396.78 166.62 380.06"/>
        <path class="cls-1" d="m299.87,196.59v16.72h-83.28v33.32h-16.45v33.43h16.11v16.62h-16.14v16.72h16.73v99.92h33.43v-16.54h16.56v-33.37h16.7v-33.29h16.74v-100.1h33.03v-33.43h-33.43Zm-66.56,33.43h16.76v16.6h-16.76v-16.6Zm33.53,83.43h-.02v33.37h-16.7v49.78h-16.56v-83.31h33.28v.16Zm16.72-16.77h-16.72v-33.18h16.72v33.18Z"/>
      </g>
      <path class="cls-1" d="m533.94,430.13v-50.07h-33.02v-33.02h-17.05v-33.43h-16.79v-49.65h-33.02v-33.02h-17.05v-33.43h-17.02v-49.23h-33.02v-33.02h-17.05v-33.43h-16.37v-48.81h-33.7V0h-50.07v33.02h-33.02v48.81h-16.09v33.43h-17.05v33.02h-33.02v49.23h-17.02v33.43h-17.05v33.02h-33.02v49.65h-16.79v33.43h-17.05v33.02H16.69v50.07H0v50.07h550.35v-50.07h-16.41Zm-467.19,0v-33.02h33.02v-33.43h17.05v-49.65h16.79v-33.02h33.02v-33.43h17.05v-49.23h17.02v-33.02h33.02v-33.43h17.05v-48.81h16.09v-33.02h16.65v33.02h16.37v48.81h17.05v33.43h33.02v33.02h17.02v49.23h17.05v33.43h33.02v33.02h16.79v49.65h17.05v33.43h33.02v33.02H66.75Z"/>
    </g>
  </g>
</svg>