<?xml version="1.0" encoding="utf-8"?>
<!-- Generator: Adobe Illustrator 28.0.0, SVG Export Plug-In . SVG Version: 6.00 Build 0)  -->
<svg version="1.1" id="Calque_2_00000098907763369377119090000004954530337717368495_"
	 xmlns="http://www.w3.org/2000/svg" xmlns:xlink="http://www.w3.org/1999/xlink" x="0px" y="0px" viewBox="0 0 266.5 190.7"
	 style="enable-background:new 0 0 266.5 190.7;" xml:space="preserve">
<style type="text/css">
	.st0{display:none;}
	.st1{display:inline;}
	.st2{fill:#00FF0A;}
</style>
<g id="Calque_1-2" class="st0">
	<g class="st1">
		<polygon points="137.8,116.8 137.8,73.4 137.8,61.3 137.8,52 137.8,0 116.8,0 116.8,10 106.3,10 106.3,20.8 95.9,20.8 95.9,31.8 
			84.8,31.8 84.8,42.4 74,42.4 74,52 31.9,52 31.9,63.2 21,63.2 21,73.4 10.5,73.4 10.5,84.2 0,84.2 0,106 10.5,106 10.5,116.8 
			21,116.8 21,127.4 31.9,127.4 31.9,138.2 74,138.2 74,148.7 84.8,148.7 84.8,159 95.9,159 95.9,169.9 106.3,169.9 106.3,180.7 
			116.8,180.7 116.8,190.7 137.8,190.7 137.8,159.3 137.8,138.2 		"/>
		<polygon points="190.4,84.7 180.3,84.7 180.3,74.4 169,74.4 169,64.2 148.4,64.2 148.4,84.7 158.5,84.7 158.5,105.3 148.4,105.3 
			148.4,125.9 169,125.9 169,117.4 180.3,117.4 180.3,105.3 190.4,105.3 		"/>
		<polygon points="266.5,75 266.5,64.1 255.7,64.1 255.7,53.2 245.2,53.2 245.2,42.3 245.2,29.8 232.9,29.8 232.9,17.4 211.5,17.4 
			211.5,29.8 211.5,29.9 211.5,42.3 223.4,42.3 223.4,64.1 233.9,64.1 233.9,75 244.8,75 244.8,85.8 244.8,87.9 244.8,94.9 
			244.8,95.1 244.8,100.4 244.8,104.2 244.8,115.1 233.9,115.1 233.9,126 223.4,126 223.4,147.8 211.5,147.8 211.5,160.2 
			211.5,160.3 211.5,172.7 232.9,172.7 232.9,160.3 245.2,160.3 245.2,147.8 245.2,136.9 255.7,136.9 255.7,126 266.5,126 
			266.5,123 266.5,115.1 		"/>
		<path d="M223,64.2h-10.9V53.3h-10.5V42.4h-21.8v21.8h10.5v10.9h10.9v40.1h-10.9v10.9h-10.5v21.8h21.8V137h10.5v-10.9H223V64.2z"/>
	</g>
</g>
<g>
	<polygon class="st2" points="137.8,116.8 137.8,73.4 137.8,61.3 137.8,52 137.8,0 116.8,0 116.8,10 106.3,10 106.3,20.8 95.9,20.8 
		95.9,31.8 84.8,31.8 84.8,42.4 74,42.4 74,52 31.9,52 31.9,63.2 21,63.2 21,73.4 10.5,73.4 10.5,84.2 0,84.2 0,106 10.5,106 
		10.5,116.8 21,116.8 21,127.4 31.9,127.4 31.9,138.2 74,138.2 74,148.7 84.8,148.7 84.8,159 95.9,159 95.9,169.9 106.3,169.9 
		106.3,180.7 116.8,180.7 116.8,190.7 137.8,190.7 137.8,159.3 137.8,138.2 	"/>
	<polygon class="st2" points="223.3,65.9 223.3,55.7 213.3,55.7 213.3,45.5 204.8,45.5 204.8,35.3 184.8,35.3 184.8,55.7 
		193.4,55.7 193.4,65.9 203.4,65.9 203.4,73.3 203.4,76.1 203.4,118.7 203.4,118.7 203.4,124.7 193.4,124.7 193.4,134.9 
		183.4,134.9 183.4,145.1 183.4,145.1 183.4,155.4 193.4,155.4 193.4,155.3 203.4,155.3 203.4,145.1 213.4,145.1 213.4,136.4 
		223.4,136.4 223.4,118.7 223.4,118.7 223.4,76.2 223.4,73.3 223.4,65.9 	"/>
	<polygon class="st2" points="180.2,74.7 180.2,67.5 173.2,67.5 173.2,60.3 167.2,60.3 167.2,53.1 153.2,53.1 153.2,67.5 
		159.2,67.5 159.2,74.7 166.2,74.7 166.2,79.9 166.2,81.9 166.2,111.8 166.2,111.8 166.2,116 159.2,116 159.2,123.1 152.2,123.1 
		152.2,130.3 152.1,130.3 152.1,137.6 159.2,137.6 159.2,137.5 166.2,137.5 166.2,130.3 173.2,130.3 173.2,124.2 180.3,124.2 
		180.3,111.8 180.3,111.8 180.3,81.9 180.3,79.9 180.3,74.7 	"/>
	<polygon class="st2" points="266.4,54.3 266.4,48.6 254.8,48.6 254.8,40 254.8,37.1 254.8,25.8 244.9,25.8 244.9,11.5 231.8,11.5 
		231.8,2.4 209.9,2.4 209.9,24.3 221.8,24.3 221.8,40 231.7,40 231.7,54.3 243.3,54.3 243.3,64.6 243.3,68.6 243.3,128 243.3,128 
		243.3,136.3 231.7,136.3 231.7,150.5 220.2,150.5 220.2,164.8 220.1,164.8 220.1,166.7 209.9,166.7 209.9,188.6 231.8,188.6 
		231.8,179 243.3,179 243.3,164.8 254.9,164.8 254.9,155.4 254.8,155.4 254.8,143.8 266.4,143.8 266.4,152.6 266.4,152.6 266.4,128 
		266.5,128 266.5,68.6 266.5,64.6 266.5,54.3 	"/>
</g>
</svg>
