<?xml version="1.0" encoding="UTF-8"?>
<svg id="Calque_2" data-name="Calque 2" xmlns="http://www.w3.org/2000/svg" viewBox="0 0 223.26 190.73">
  <defs>
    <style>
      .cls-1 {
        fill: #00ff0a;
        stroke-width: 0px;
      }
    </style>
  </defs>
  <g id="Calque_1-2" data-name="Calque 1">
    <g>
      <polygon class="cls-1" points="137.75 116.81 137.75 73.39 137.75 61.26 137.75 52.01 137.75 0 116.81 0 116.81 10.04 106.33 10.04 106.33 20.83 95.86 20.83 95.86 31.76 84.83 31.76 84.83 42.43 74.03 42.43 74.03 52.01 31.92 52.01 31.92 63.25 20.97 63.25 20.97 73.39 10.49 73.39 10.49 84.17 0 84.17 0 106.04 10.49 106.04 10.49 116.81 20.97 116.81 20.97 127.41 31.92 127.41 31.92 138.19 74.03 138.19 74.03 148.73 84.83 148.73 84.83 158.97 95.86 158.97 95.86 169.89 106.33 169.89 106.33 180.69 116.81 180.69 116.81 190.73 137.75 190.73 137.75 159.27 137.75 138.19 137.75 116.81"/>
      <polygon class="cls-1" points="212.65 106.16 212.65 95.55 202.04 95.55 202.04 95.31 202.04 84.94 202.04 84.7 212.65 84.7 212.65 74.09 223.26 74.09 223.26 52.87 202.04 52.87 202.04 63.48 191.43 63.48 191.43 74.09 190.86 74.09 180.82 74.09 180.25 74.09 180.25 63.48 169.64 63.48 169.64 52.87 148.42 52.87 148.42 74.09 159.03 74.09 159.03 84.7 169.64 84.7 169.64 84.94 169.64 95.31 169.64 95.55 159.03 95.55 159.03 106.16 148.42 106.16 148.42 127.38 169.64 127.38 169.64 116.77 180.25 116.77 180.25 106.16 180.82 106.16 180.82 106.16 191.43 106.16 191.43 116.77 202.04 116.77 202.04 127.38 223.26 127.38 223.26 106.16 212.65 106.16"/>
    </g>
  </g>
</svg>