<?xml version="1.0" encoding="UTF-8"?>
<svg id="Calque_2" data-name="Calque 2" xmlns="http://www.w3.org/2000/svg" viewBox="0 0 266.55 190.73">
  <defs>
    <style>
      .cls-1 {
        fill: #00ff0a;
        stroke-width: 0px;
      }
    </style>
  </defs>
  <g id="Calque_2-2" data-name="Calque 2">
    <g>
      <polygon class="cls-1" points="137.75 116.81 137.75 73.39 137.75 61.26 137.75 52.01 137.75 0 116.81 0 116.81 10.04 106.33 10.04 106.33 20.83 95.86 20.83 95.86 31.76 84.83 31.76 84.83 42.43 74.03 42.43 74.03 52.01 31.92 52.01 31.92 63.25 20.97 63.25 20.97 73.39 10.49 73.39 10.49 84.17 0 84.17 0 106.04 10.49 106.04 10.49 116.81 20.97 116.81 20.97 127.41 31.92 127.41 31.92 138.19 74.03 138.19 74.03 148.73 84.83 148.73 84.83 158.97 95.86 158.97 95.86 169.89 106.33 169.89 106.33 180.69 116.81 180.69 116.81 190.73 137.75 190.73 137.75 159.27 137.75 138.19 137.75 116.81"/>
      <polygon class="cls-1" points="232.14 88.97 232.14 88.69 244.53 88.69 244.53 76.3 256.92 76.3 256.92 63.91 266.55 63.91 266.55 39.13 241.77 39.13 241.77 51.52 232.14 51.52 232.14 63.91 219.75 63.91 219.75 76.3 219.09 76.3 207.36 76.3 206.7 76.3 206.7 63.91 194.31 63.91 194.31 51.52 183.67 51.52 183.67 39.13 158.9 39.13 158.9 63.91 169.53 63.91 169.53 76.3 181.92 76.3 181.92 88.69 194.31 88.69 194.31 88.97 194.31 101.08 194.31 101.36 181.92 101.36 181.92 113.75 169.53 113.75 169.53 126.14 158.9 126.14 158.9 150.92 183.67 150.92 183.67 138.53 194.31 138.53 194.31 126.14 206.7 126.14 206.7 113.75 207.36 113.75 219.75 113.75 219.75 126.14 232.14 126.14 232.14 138.53 241.77 138.53 241.77 150.92 266.55 150.92 266.55 126.14 256.92 126.14 256.92 113.75 244.53 113.75 244.53 101.36 232.14 101.36 232.14 101.08 232.14 88.97"/>
    </g>
  </g>
</svg>