<?xml version="1.0" encoding="UTF-8"?>
<svg id="Calque_2" data-name="Calque 2" xmlns="http://www.w3.org/2000/svg" viewBox="0 0 266.55 190.73">
  <defs>
    <style>
      .cls-1 {
        fill: #00ff0a;
        stroke-width: 0px;
      }
    </style>
  </defs>
  <g id="Calque_1-2" data-name="Calque 1">
    <g>
      <polygon class="cls-1" points="137.75 116.81 137.75 73.39 137.75 61.26 137.75 52.01 137.75 0 116.81 0 116.81 10.04 106.33 10.04 106.33 20.83 95.86 20.83 95.86 31.76 84.83 31.76 84.83 42.43 74.03 42.43 74.03 52.01 31.92 52.01 31.92 63.25 20.97 63.25 20.97 73.39 10.49 73.39 10.49 84.17 0 84.17 0 106.04 10.49 106.04 10.49 116.81 20.97 116.81 20.97 127.41 31.92 127.41 31.92 138.19 74.03 138.19 74.03 148.73 84.83 148.73 84.83 158.97 95.86 158.97 95.86 169.89 106.33 169.89 106.33 180.69 116.81 180.69 116.81 190.73 137.75 190.73 137.75 159.27 137.75 138.19 137.75 116.81"/>
      <polygon class="cls-1" points="190.37 84.74 180.28 84.74 180.28 74.45 168.99 74.45 168.99 64.17 148.42 64.17 148.42 84.74 158.51 84.74 158.51 105.31 148.42 105.31 148.42 125.88 168.99 125.88 168.99 117.41 180.28 117.41 180.28 105.31 190.37 105.31 190.37 84.74"/>
      <polygon class="cls-1" points="266.55 74.96 266.55 64.07 255.66 64.07 255.66 53.18 245.18 53.18 245.18 42.29 245.18 29.78 232.92 29.78 232.92 17.37 211.52 17.37 211.52 29.78 211.52 29.88 211.52 42.29 223.4 42.29 223.4 64.07 233.88 64.07 233.88 74.96 244.77 74.96 244.77 85.85 244.77 87.86 244.77 94.92 244.77 95.12 244.77 100.37 244.77 104.2 244.77 115.09 233.88 115.09 233.88 125.98 223.4 125.98 223.4 147.76 211.52 147.76 211.52 160.17 211.52 160.27 211.52 172.68 232.92 172.68 232.92 160.27 245.18 160.27 245.18 147.76 245.18 136.87 255.66 136.87 255.66 125.98 266.55 125.98 266.55 123 266.55 115.09 266.55 74.96"/>
      <path class="cls-1" d="m223.04,64.17h-10.89v-10.89h-10.49v-10.89h-21.78v21.78h10.49v10.89h10.89v40.13h-10.89v10.89h-10.49v21.78h21.78v-10.89h10.49v-10.89h10.89v-61.91Z"/>
    </g>
  </g>
</svg>