<?xml version="1.0" encoding="UTF-8"?>
<svg id="Calque_2" data-name="Calque 2" xmlns="http://www.w3.org/2000/svg" viewBox="0 0 300.02 311.55">
  <defs>
    <style>
      .cls-1 {
        fill: #fff;
        stroke-width: 0px;
      }
    </style>
  </defs>
  <g id="Calque_2-2" data-name="Calque 2">
    <polygon class="cls-1" points="233.19 132.2 233.19 82.7 266.86 82.7 266.86 51.98 300.02 51.98 300.02 0 237.64 0 237.64 33.2 199.53 33.2 199.53 82.7 165.86 82.7 165.86 107.45 132.19 107.45 132.19 82.7 98.53 82.7 98.53 33.2 62.39 33.2 62.39 0 0 0 0 51.98 31.19 51.98 31.19 82.7 64.86 82.7 64.86 132.2 98.53 132.2 98.53 181.71 64.86 181.71 64.86 231.21 31.19 231.21 31.19 259.57 0 259.57 0 311.55 62.39 311.55 62.39 280.71 98.53 280.71 98.53 231.21 132.19 231.21 132.19 206.46 165.86 206.46 165.86 231.21 199.53 231.21 199.53 280.71 237.64 280.71 237.64 311.55 300.02 311.55 300.02 259.57 266.86 259.57 266.86 231.21 233.19 231.21 233.19 181.71 199.53 181.71 199.53 132.2 233.19 132.2"/>
  </g>
</svg>